# Blender 4.1.0
# www.blender.org
mtllib Coffin.mtl
o Coffin_Base
v 0.999996 0.499317 0.450033
v -1.000004 0.499317 0.450032
v 0.969996 -0.000497 0.436533
v -0.970004 -0.000496 0.436532
v 0.999996 0.499317 -0.449967
v -1.000004 0.499317 -0.449968
v 0.969996 -0.000497 -0.436467
v -0.970004 -0.000496 -0.436468
v -1.044181 0.536019 0.469912
v -1.044181 0.536019 -0.469847
v 1.044173 0.536019 -0.469847
v 1.044173 0.536019 0.469912
v 0.999996 0.572721 -0.449967
v -1.000004 0.572721 -0.449968
v -1.000004 0.572721 0.450032
v 0.999996 0.572721 0.450033
v 0.999996 0.267075 0.450033
v 0.999996 0.191559 0.450033
v 1.031623 0.229317 0.464265
v -1.000004 0.191559 0.450032
v -1.000004 0.267075 0.450032
v -1.031631 0.229317 0.464265
v 0.999996 0.191559 -0.449967
v 0.999996 0.267075 -0.449967
v 1.031623 0.229317 -0.464199
v -1.000004 0.267075 -0.449968
v -1.000004 0.191559 -0.449968
v -1.031631 0.229317 -0.464200
v 0.961316 0.572721 -0.432561
v -0.961324 0.572721 -0.432562
v -0.961324 0.572721 0.432626
v 0.961316 0.572721 0.432627
v 0.961316 0.039343 -0.432561
v -0.961324 0.039343 -0.432562
v -0.961324 0.039343 0.432626
v 0.961316 0.039343 0.432627
vn -0.9880 -0.1543 -0.0000
vn -0.0000 -1.0000 -0.0000
vn 0.6390 -0.7692 -0.0000
vn -0.0000 -0.0701 0.9975
vn -0.0000 -0.0701 -0.9975
vn -0.0000 0.4763 -0.8793
vn -0.0000 0.4763 0.8793
vn -0.6390 0.7692 -0.0000
vn 0.6390 0.7692 -0.0000
vn -0.6390 -0.7692 -0.0000
vn -0.0000 -0.4763 0.8793
vn -0.0000 -0.4763 -0.8793
vn -1.0000 -0.0000 -0.0000
vn 1.0000 -0.0000 -0.0000
vn -0.0000 -0.0000 -1.0000
vn 0.9880 -0.1543 -0.0000
vn -0.7666 0.6421 -0.0000
vn -0.7666 -0.6421 -0.0000
vn 0.7666 0.6421 -0.0000
vn 0.7666 -0.6421 -0.0000
vn -0.0000 0.3527 -0.9357
vn -0.0000 -0.3527 -0.9357
vn -0.0000 -0.3527 0.9357
vn -0.0000 0.3527 0.9357
vn -0.0000 -0.0000 1.0000
vn -0.0000 1.0000 -0.0000
vt 0.739031 0.065157
vt 0.600863 0.065157
vt 0.600863 0.035673
vt 0.739031 0.035673
vt 0.600863 0.372197
vt 0.739031 0.372197
vt 0.008955 0.295800
vt 0.008955 0.168501
vt 0.017078 0.165689
vt 0.017078 0.298611
vt 0.571379 0.372197
vt 0.571379 0.065157
vt 0.768516 0.065157
vt 0.768516 0.372197
vt 0.094396 0.087154
vt 0.389778 0.087154
vt 0.383530 0.093058
vt 0.100644 0.093058
vt 0.389779 0.377146
vt 0.094396 0.377146
vt 0.100644 0.371242
vt 0.383530 0.371242
vt 0.467096 0.165689
vt 0.467096 0.298611
vt 0.458973 0.295799
vt 0.458973 0.168501
vt 0.025202 0.168501
vt 0.025202 0.295800
vt 0.475220 0.168501
vt 0.475220 0.295799
vt 0.383530 0.383050
vt 0.100644 0.383050
vt 0.100644 0.081250
vt 0.383530 0.081250
vt 0.933873 0.953328
vt 0.933873 0.748656
vt 0.986688 0.748656
vt 0.986688 0.953328
vt 0.862637 0.953329
vt 0.862637 0.748656
vt 0.915452 0.748656
vt 0.915452 0.953329
vt 0.290861 0.015683
vt 0.556407 0.015683
vt 0.556407 0.046518
vt 0.290861 0.046518
vt 0.739031 0.401681
vt 0.600863 0.401681
vt 0.719491 0.974347
vt 0.719491 0.729710
vt 0.732879 0.725842
vt 0.732879 0.978216
vt 0.746267 0.729710
vt 0.746267 0.974347
vt 0.670696 0.974348
vt 0.670696 0.729710
vt 0.684085 0.725842
vt 0.684085 0.978216
vt 0.697473 0.729710
vt 0.697473 0.974348
vt 0.941805 0.599311
vt 0.941805 0.037590
vt 0.953138 0.028708
vt 0.953138 0.608194
vt 0.964471 0.037590
vt 0.964471 0.599311
vt 0.896388 0.599312
vt 0.896388 0.037590
vt 0.907721 0.028708
vt 0.907721 0.608195
vt 0.919055 0.037590
vt 0.919055 0.599312
vt 0.280106 0.046518
vt 0.014559 0.046518
vt 0.014559 0.015683
vt 0.280106 0.015683
vt 0.378059 0.095520
vt 0.106115 0.095520
vt 0.453502 0.293338
vt 0.453502 0.170963
vt 0.106115 0.368780
vt 0.378059 0.368780
vt 0.030672 0.170963
vt 0.030672 0.293338
vt 0.106115 0.293338
vt 0.378059 0.293338
vt 0.106115 0.170963
vt 0.378059 0.170963
s 0
f 8/1/1 4/2/1 20/3/1 27/4/1
f 3/5/2 4/2/2 8/1/2 7/6/2
f 1/7/3 5/8/3 11/9/3 12/10/3
f 18/11/4 20/12/4 4/2/4 3/5/4
f 7/6/5 8/1/5 27/13/5 23/14/5
f 11/15/6 10/16/6 14/17/6 13/18/6
f 9/19/7 12/20/7 16/21/7 15/22/7
f 10/23/8 9/24/8 15/25/8 14/26/8
f 12/10/9 11/9/9 13/27/9 16/28/9
f 6/29/10 2/30/10 9/24/10 10/23/10
f 2/31/11 1/32/11 12/20/11 9/19/11
f 5/33/12 6/34/12 10/16/12 11/15/12
f 26/35/13 21/36/13 2/37/13 6/38/13
f 17/39/14 24/40/14 5/41/14 1/42/14
f 24/43/15 26/44/15 6/45/15 5/46/15
f 3/5/16 7/6/16 23/47/16 18/48/16
f 21/49/17 26/50/17 28/51/17 22/52/17
f 22/52/18 28/51/18 27/53/18 20/54/18
f 24/55/19 17/56/19 19/57/19 25/58/19
f 25/58/20 19/57/20 18/59/20 23/60/20
f 26/61/21 24/62/21 25/63/21 28/64/21
f 28/64/22 25/63/22 23/65/22 27/66/22
f 20/67/23 18/68/23 19/69/23 22/70/23
f 22/70/24 19/69/24 17/71/24 21/72/24
f 1/73/25 2/74/25 21/75/25 17/76/25
f 13/18/26 14/17/26 30/77/26 29/78/26
f 14/26/26 15/25/26 31/79/26 30/80/26
f 15/22/26 16/21/26 32/81/26 31/82/26
f 16/28/26 13/27/26 29/83/26 32/84/26
f 31/82/15 32/81/15 36/85/15 35/86/15
f 32/84/13 29/83/13 33/87/13 36/85/13
f 29/78/25 30/77/25 34/88/25 33/87/25
f 30/80/14 31/79/14 35/86/14 34/88/14
f 34/88/26 35/86/26 36/85/26 33/87/26
o Coffin_Top
v 0.999996 0.570368 -0.449967
v 0.827471 0.686630 -0.303221
v -0.845675 0.686630 -0.303221
v -1.000004 0.570369 -0.449968
v -1.000004 0.570369 0.450032
v -0.845675 0.686630 0.303286
v 0.827471 0.686630 0.303286
v 0.999996 0.570368 0.450032
v -0.957833 0.608322 -0.407797
v -0.923735 0.639011 -0.373699
v -0.911403 0.623666 -0.378544
v -0.923735 0.639011 0.373763
v -0.957833 0.608322 0.407861
v -0.911403 0.623666 0.378608
v 0.957825 0.608322 0.407861
v 0.923727 0.639010 0.373764
v 0.911395 0.623666 0.378608
v 0.923727 0.639010 -0.373699
v 0.957825 0.608322 -0.407797
v 0.911395 0.623666 -0.378544
v -1.000004 0.570369 0.000033
v 0.999996 0.570368 0.000033
v 0.923727 0.639010 0.000033
v 0.911395 0.623666 0.000033
v 0.957825 0.608322 0.000033
v -0.923735 0.639011 0.000033
v -0.911403 0.623666 0.000033
v -0.957833 0.608322 0.000033
v -0.300004 0.570369 -0.449968
v -0.300004 0.570369 0.450032
v -0.300004 0.608322 0.407861
v -0.300004 0.623666 0.378608
v -0.300004 0.639010 0.373763
v -0.300004 0.608322 -0.407797
v -0.300004 0.623666 -0.378544
v -0.300004 0.639010 -0.373699
v -0.300004 0.570369 0.000033
v -0.845675 0.686630 0.046173
v -0.845675 0.686630 -0.046108
v -0.894174 0.676340 0.000033
v -0.881564 0.687690 0.000033
v 0.827471 0.686630 -0.046108
v 0.827471 0.686630 0.046173
v 0.894166 0.676340 0.000033
v 0.881556 0.687689 0.000033
v -0.353726 0.686630 -0.303221
v -0.228085 0.686630 -0.303221
v -0.300004 0.676340 -0.344138
v -0.300004 0.687689 -0.331528
v -0.228085 0.686630 0.303286
v -0.353726 0.686630 0.303286
v -0.300004 0.676340 0.344203
v -0.300004 0.687689 0.331593
v -0.228085 0.686630 0.046173
v -0.228085 0.686630 -0.046108
v -0.353726 0.686630 -0.046108
v -0.353726 0.686630 0.046173
v -0.282170 0.687689 0.000033
v -0.300004 0.687689 0.000033
v -0.300004 0.687689 -0.017801
v -0.317838 0.687689 0.000033
v -0.300004 0.687689 0.017866
v -0.267727 0.677110 0.021760
v 0.867113 0.677110 0.021760
v 0.867113 0.677110 -0.021695
v -0.267727 0.677110 -0.021695
v -0.874567 0.677110 0.021760
v -0.324834 0.677110 0.021760
v -0.324834 0.677110 -0.021695
v -0.874567 0.677110 -0.021695
v -0.324834 0.677110 -0.327634
v -0.267727 0.677110 -0.327634
v -0.324834 0.677110 0.327699
v -0.267727 0.677110 0.327699
v -0.874567 0.677110 -0.327634
v -0.874567 0.677110 0.327699
v 0.867113 0.677110 0.327699
v 0.867113 0.677110 -0.327634
vn -0.6169 0.7868 0.0164
vn 0.0042 0.7691 0.6391
vn -0.0000 1.0000 -0.0000
vn 0.6690 0.7433 -0.0000
vn -0.0000 0.7433 0.6690
vn -0.0000 0.7433 -0.6690
vn 0.0042 0.7691 -0.6391
vn -0.0083 0.7683 -0.6400
vn -0.0000 0.8856 0.4645
vn -0.0000 0.3011 0.9536
vn -0.0000 0.8856 -0.4645
vn -0.0000 0.3011 -0.9536
vn 0.7795 -0.6264 -0.0000
vn 0.3138 0.9495 -0.0000
vn -0.7795 -0.6264 -0.0000
vn -0.3138 0.9495 -0.0000
vn -0.6690 0.7433 -0.0000
vn -0.0000 -1.0000 -0.0000
vn -0.6169 0.7868 -0.0164
vn 0.5637 0.8257 -0.0208
vn -0.0083 0.7683 0.6400
vn 0.5637 0.8257 0.0208
vn -0.5793 0.6437 0.5000
vn -0.5793 0.6437 -0.5000
vn 0.5207 0.5785 -0.6278
vn 0.5207 0.5785 0.6278
vn -0.3885 0.6849 -0.6164
vn 0.3085 0.7070 -0.6363
vn 0.3085 0.7070 0.6363
vn -0.3885 0.6849 0.6164
vn 0.1888 0.9637 0.1888
vn 0.1888 0.9637 -0.1888
vn -0.2163 0.9520 -0.2163
vn -0.2163 0.9520 0.2163
vn -0.0000 0.8991 0.4378
vn -0.0000 0.8991 -0.4378
vn -0.3920 0.9200 -0.0000
vn 0.3115 0.9503 -0.0000
vn -0.0000 0.9317 -0.3633
vn -0.0000 0.9317 0.3633
vn 0.3130 0.9498 -0.0000
vn -0.2335 0.9724 -0.0000
vn -0.3130 0.9498 -0.0000
vn 0.2335 0.9724 -0.0000
vt 0.593850 0.536692
vt 0.594447 0.649085
vt 0.576033 0.635616
vt 0.575544 0.543822
vt 0.580120 0.536653
vt 0.044730 0.636069
vt 0.391768 0.635560
vt 0.401728 0.639564
vt 0.401864 0.653515
vt 0.027692 0.654133
vt 0.056642 0.550235
vt 0.380022 0.550521
vt 0.379509 0.627688
vt 0.056299 0.628388
vt 0.049154 0.832812
vt 0.049154 0.950729
vt 0.034288 0.939679
vt 0.034288 0.832812
vt 0.389803 0.700029
vt 0.562179 0.700029
vt 0.573229 0.714896
vt 0.389803 0.714896
vt 0.389803 0.965596
vt 0.060205 0.965596
vt 0.389803 0.950729
vt 0.401991 0.432081
vt 0.391928 0.436063
vt 0.044735 0.434608
vt 0.027725 0.416482
vt 0.402200 0.418048
vt 0.576305 0.436841
vt 0.409970 0.436209
vt 0.591126 0.419024
vt 0.060205 0.700029
vt 0.072371 0.691373
vt 0.389803 0.691373
vt 0.401860 0.658405
vt 0.031420 0.658979
vt 0.562179 0.965596
vt 0.550012 0.974252
vt 0.389803 0.974252
vt 0.402224 0.413148
vt 0.587467 0.414197
vt 0.024100 0.535286
vt 0.024742 0.648976
vt 0.018762 0.650484
vt 0.018109 0.535316
vt 0.021474 0.832812
vt 0.021474 0.733611
vt 0.034288 0.725946
vt 0.595239 0.424194
vt 0.601180 0.422809
vt 0.599771 0.536713
vt 0.600909 0.832813
vt 0.600909 0.932014
vt 0.588096 0.939679
vt 0.588096 0.832813
vt 0.573229 0.832813
vt 0.588096 0.725946
vt 0.389803 0.832813
vt 0.049154 0.714896
vt 0.573229 0.950729
vt 0.600909 0.733611
vt 0.600372 0.650510
vt 0.021474 0.932014
vt 0.023574 0.421486
vt 0.017573 0.420038
vt 0.056295 0.442326
vt 0.379550 0.443928
vt 0.379612 0.521605
vt 0.056557 0.520392
vt 0.419677 0.551010
vt 0.566446 0.551668
vt 0.567365 0.628774
vt 0.418837 0.627713
vt 0.575581 0.529457
vt 0.576713 0.437540
vt 0.043806 0.434966
vt 0.044086 0.528195
vt 0.037282 0.535253
vt 0.031467 0.411641
vt 0.072371 0.974252
vt 0.586525 0.658979
vt 0.590213 0.654200
vt 0.550012 0.691373
vt 0.409667 0.635502
vt 0.575595 0.636311
vt 0.044078 0.542255
vt 0.044816 0.635296
vt 0.575830 0.536641
vt 0.040857 0.535249
vt 0.401940 0.436664
vt 0.401699 0.635016
vt 0.790665 0.658166
vt 0.811781 0.666495
vt 0.811645 0.676283
vt 0.795057 0.676190
vt 0.833125 0.658353
vt 0.828242 0.676354
vt 0.833016 0.690619
vt 0.811505 0.686104
vt 0.789891 0.690410
vt 0.798455 0.071855
vt 0.819779 0.064490
vt 0.840905 0.072050
vt 0.785893 0.978401
vt 0.807364 0.982170
vt 0.828455 0.978693
vt 0.986084 0.690075
vt 0.988093 0.675802
vt 0.985984 0.657872
vt 0.637699 0.687078
vt 0.635951 0.673033
vt 0.638333 0.655182
vt 0.419190 0.444117
vt 0.567987 0.444328
vt 0.566598 0.521677
vt 0.420054 0.521313
vt 0.392199 0.543000
vt 0.392182 0.529707
vt 0.410780 0.543465
vt 0.410896 0.529219
s 0
f 62/89/27 48/90/27 112/91/27 103/92/27 76/93/27
f 113/94/28 110/95/28 88/96/28 69/97/28 52/98/28
f 79/99/29 90/100/29 86/101/29 43/102/29
f 58/103/30 37/104/30 55/105/30 61/106/30
f 67/107/31 49/108/31 41/109/31 66/110/31
f 70/111/32 55/112/32 37/104/32 65/113/32
f 84/114/33 108/115/33 114/116/33 54/117/33 72/118/33
f 111/119/34 107/120/34 84/114/34 72/118/34 46/121/34
f 67/107/35 51/122/35 53/123/35 68/124/35
f 68/125/36 53/126/36 52/98/36 69/97/36
f 70/111/37 45/127/37 47/128/37 71/129/37
f 71/130/38 47/131/38 46/121/38 72/118/38
f 59/132/39 52/133/39 53/134/39 60/135/39
f 60/136/40 53/137/40 51/138/40 61/106/40
f 62/89/41 46/139/41 47/140/41 63/141/41
f 63/142/42 47/143/42 45/144/42 64/145/42
f 57/146/43 41/109/43 49/147/43 64/145/43
f 73/148/44 58/103/44 44/149/44 66/110/44
f 65/113/44 37/104/44 58/103/44 73/148/44
f 40/150/43 57/146/43 64/145/43 45/144/43
f 50/151/42 63/142/42 64/145/42 49/147/42
f 48/90/41 62/89/41 63/141/41 50/152/41
f 56/153/40 60/136/40 61/106/40 55/105/40
f 54/154/39 59/132/39 60/135/39 56/155/39
f 38/156/29 83/157/29 91/158/29 78/159/29
f 44/149/30 58/103/30 61/106/30 51/138/30
f 93/160/29 74/161/29 42/162/29 87/163/29
f 46/139/45 62/89/45 76/93/45 106/164/45 111/165/45
f 59/132/46 54/154/46 114/166/46 101/167/46 80/168/46
f 40/150/44 65/113/44 73/148/44 57/146/44
f 57/146/44 73/148/44 66/110/44 41/109/44
f 56/169/38 71/130/38 72/118/38 54/117/38
f 55/112/37 70/111/37 71/129/37 56/170/37
f 50/171/36 68/125/36 69/97/36 48/172/36
f 49/108/35 67/107/35 68/124/35 50/173/35
f 88/96/47 109/174/47 112/175/47 48/172/47 69/97/47
f 45/127/32 70/111/32 65/113/32 40/150/32
f 51/122/31 67/107/31 66/110/31 44/149/31
f 52/133/48 59/132/48 80/168/48 100/176/48 113/177/48
f 103/92/49 77/178/49 76/93/49
f 77/178/50 106/164/50 76/93/50
f 101/167/51 81/179/51 80/168/51
f 81/179/52 100/176/52 80/168/52
f 107/120/53 85/180/53 84/114/53
f 85/180/54 108/115/54 84/114/54
f 110/95/55 89/181/55 88/96/55
f 89/181/56 109/174/56 88/96/56
f 99/182/57 94/183/57 95/184/57 98/185/57
f 102/186/58 96/187/58 95/184/58 94/183/58
f 105/188/59 97/189/59 95/184/59 96/187/59
f 104/190/60 98/185/60 95/184/60 97/189/60
f 99/182/61 100/191/61 81/192/61 94/183/61
f 94/183/62 81/192/62 101/193/62 102/186/62
f 103/194/61 104/190/61 97/189/61 77/195/61
f 77/195/62 97/189/62 105/188/62 106/196/62
f 107/197/63 105/188/63 96/187/63 85/198/63
f 85/198/64 96/187/64 102/186/64 108/199/64
f 104/190/63 109/200/63 89/201/63 98/185/63
f 98/185/64 89/201/64 110/202/64 99/182/64
f 82/203/29 39/204/29 75/205/29 92/206/29
f 90/100/65 79/99/65 100/176/65 99/207/65
f 78/159/66 91/158/66 102/208/66 101/167/66
f 74/161/65 93/160/65 104/209/65 103/92/65
f 92/206/66 75/205/66 106/164/66 105/210/66
f 82/203/67 92/206/67 105/210/67 107/120/67
f 91/158/68 83/157/68 108/115/68 102/208/68
f 93/160/67 87/163/67 109/174/67 104/209/67
f 86/101/68 90/100/68 99/207/68 110/95/68
f 39/204/65 82/203/65 107/120/65 111/119/65
f 75/205/69 39/204/69 111/165/69 106/164/69
f 42/162/69 74/161/69 103/92/69 112/91/69
f 87/163/66 42/162/66 112/175/66 109/174/66
f 79/99/70 43/102/70 113/177/70 100/176/70
f 43/102/66 86/101/66 110/95/66 113/94/66
f 38/156/70 78/159/70 101/167/70 114/166/70
f 83/157/65 38/156/65 114/116/65 108/115/65
