# Blender 4.0.2
# www.blender.org
mtllib Poste da rua.mtl
o Plane.002
v -0.007525 0.008937 -0.000227
v -0.007525 0.000000 -0.008696
v 0.000000 0.008937 -0.008696
v -0.242570 0.008937 -0.281470
v -0.242615 0.000000 -0.273000
v -0.250141 0.008937 -0.273000
v 0.000000 0.008937 -0.273000
v -0.007525 0.000000 -0.273000
v -0.007525 0.008937 -0.281470
v -0.242570 0.008937 -0.000227
v -0.250096 0.008937 -0.008696
v -0.242570 0.000000 -0.008696
v -0.250096 0.008937 -0.077299
v -0.242570 0.008937 -0.085769
v -0.242570 0.000000 -0.077299
v -0.090107 0.008937 -0.085769
v -0.082582 0.000000 -0.077299
v -0.090107 0.008937 -0.182978
v -0.082582 0.000000 -0.191447
v -0.243094 0.008937 -0.182978
v -0.250575 0.008937 -0.191447
v -0.243049 0.000000 -0.191447
v -0.007525 1.977026 -0.000227
v 0.000000 1.977026 -0.008696
v -0.007525 1.985963 -0.008696
v -0.242570 1.977026 -0.000227
v -0.242570 1.985963 -0.008696
v -0.250096 1.977026 -0.008696
v -0.000009 1.977031 -0.273005
v -0.242570 1.977031 -0.281465
v -0.250141 1.977026 -0.273000
v -0.250096 1.977026 -0.077299
v -0.242570 1.985963 -0.077299
v -0.242570 1.977026 -0.085769
v -0.082582 1.985963 -0.077299
v -0.090107 1.977026 -0.085769
v -0.082582 1.985963 -0.191447
v -0.090107 1.977026 -0.182978
v -0.243094 1.977026 -0.182978
v -0.243049 1.985963 -0.191447
v -0.250575 1.977026 -0.191447
v -0.007525 1.399053 -0.281470
v 0.000000 1.399053 -0.273000
v -0.250141 1.399053 -0.273000
v -0.242570 1.399053 -0.281470
v -0.000004 1.399053 -0.008691
v -0.242570 1.399053 -0.000227
v -0.250575 1.399053 -0.191447
v -0.243094 1.399053 -0.182978
v -0.242570 1.399053 -0.085769
v -0.250096 1.399053 -0.077299
v -0.090107 1.399053 -0.085769
v -0.250096 1.391456 -0.008696
v -0.245572 1.399053 -0.003606
v -0.250096 1.406650 -0.008696
v -0.250096 1.399053 -0.015896
v -0.090107 1.375794 -0.182978
v -0.090107 1.399053 -0.160936
v -0.090107 1.422312 -0.182978
v -0.109692 1.399053 -0.182978
v -0.250132 1.977037 -0.273000
v -0.242703 1.985963 -0.256457
v -0.227916 1.985963 -0.273000
v -0.000004 0.688973 -0.273005
v -0.242570 0.688973 -0.281470
v -0.007525 0.688973 -0.000227
v -0.250575 0.688973 -0.191447
v -0.250141 0.688973 -0.273000
v 0.000000 0.688973 -0.008696
v -0.242570 0.688973 -0.000227
v -0.243094 0.688973 -0.182978
v -0.007525 0.648702 -0.281470
v -0.041435 0.688973 -0.281470
v -0.007525 0.729244 -0.281470
v -0.112954 0.008937 -0.000227
v -0.112954 0.000000 -0.008696
v -0.112954 1.985958 -0.008691
v -0.112954 1.399053 -0.000227
v -0.112954 0.688973 -0.000227
v -0.138977 1.977026 -0.000227
v -0.112954 1.946120 -0.000227
v -0.086930 1.977026 -0.000227
v -0.051443 1.399053 -0.000227
v -0.007525 1.346896 -0.000227
v -0.007525 1.451210 -0.000227
v -0.031308 1.985963 -0.273000
v -0.007525 1.985963 -0.246235
v -0.007525 1.944081 -0.281465
v -0.035270 1.977031 -0.281465
v -0.031296 1.985959 -0.273004
v -0.243094 0.755961 -0.182978
v -0.181188 0.755961 -0.281465
v -0.250575 0.755961 -0.191447
v -0.250141 0.709528 -0.273000
v -0.250375 0.755961 -0.228998
v -0.250141 0.802395 -0.273000
v -0.000002 0.348955 -0.273003
v -0.068341 0.348955 -0.000232
v -0.242570 0.348955 -0.000227
v -0.007525 0.328819 -0.281470
v -0.112954 0.348955 -0.000227
v 0.000000 0.422293 -0.008696
v 0.000000 0.281013 -0.008696
v -0.000000 0.348955 -0.082899
v -0.251426 2.449090 0.540989
v -0.250115 1.626438 0.540989
v -0.251692 2.449090 -0.793804
v -0.252535 1.626438 -0.793804
v -0.299567 2.449090 0.540989
v -0.300000 1.626438 0.540989
v -0.298949 2.449090 -0.793804
v -0.298901 1.626438 -0.793804
v -0.251780 2.500000 -0.761023
v -0.251780 2.500000 0.508208
v -0.251780 1.575529 0.508208
v -0.251780 1.575529 -0.761023
v -0.299838 2.500000 0.508208
v -0.299838 1.575529 0.508208
v -0.251780 2.384441 0.623593
v -0.251780 1.691088 0.623593
v -0.251780 1.691088 -0.876407
v -0.251780 2.384441 -0.876407
v -0.299838 1.691088 -0.876407
v -0.299838 2.384441 -0.876407
v -0.299838 1.691088 0.623593
v -0.299695 2.328030 -0.754368
v -0.299695 1.650743 0.404944
v -0.299695 2.424785 -0.657759
v -0.297479 2.382159 -0.685205
v -0.251780 1.691088 0.508208
v -0.251780 2.384441 0.508208
v -0.251780 1.691088 -0.761023
v -0.251780 2.384441 -0.761023
v -0.297479 1.693369 0.432391
v -0.299695 2.328030 0.501553
v -0.297479 2.382159 0.432391
v -0.299695 2.424785 0.404944
v -0.297479 1.693369 -0.685205
v -0.299695 1.650743 -0.657759
v -0.299695 1.747499 -0.754368
v -0.299695 1.747499 0.501553
v -0.278091 1.747499 0.501553
v -0.278091 2.328030 0.501553
v -0.275875 2.382159 0.432391
v -0.278091 2.424785 0.404944
v -0.278091 2.424785 -0.657759
v -0.275875 2.382159 -0.685205
v -0.278091 1.747499 -0.754368
v -0.278091 2.328030 -0.754368
v -0.275875 1.693369 -0.685205
v -0.278091 1.650743 -0.657759
v -0.275875 1.693369 0.432391
v -0.278091 1.650743 0.404944
v -0.299783 2.471263 -0.721569
v -0.299838 2.500000 -0.699919
v -0.283959 2.500000 -0.761023
v -0.299255 2.466589 -0.782536
v -0.299777 2.360274 0.571309
v -0.299838 2.263120 0.623593
v -0.282060 2.384441 0.623593
v -0.299706 2.416036 0.583223
v -0.299164 1.612138 -0.784595
v -0.279519 1.575529 -0.761023
v -0.299838 1.575529 -0.693744
v -0.299778 1.607170 -0.717582
vn 1.0000 -0.0000 -0.0000
vn -1.0000 -0.0000 -0.0000
vn -1.0000 -0.0000 -0.0053
vn -0.0000 -1.0000 -0.0000
vn -0.6349 0.5308 -0.5613
vn -0.0000 -0.0000 -1.0000
vn -0.7475 -0.0000 0.6642
vn 0.7475 -0.0000 -0.6642
vn 0.6326 -0.5327 0.5621
vn -0.6314 -0.5317 -0.5644
vn 0.6326 -0.5327 -0.5621
vn -0.6326 -0.5327 0.5621
vn -0.6326 -0.5327 -0.5621
vn -0.6338 -0.5337 0.5598
vn 0.6326 0.5327 0.5621
vn -0.6326 0.5327 0.5621
vn -0.7649 0.6441 -0.0041
vn -0.6326 0.5327 -0.5621
vn -0.6338 0.5337 0.5598
vn -0.0000 -0.6879 0.7258
vn 0.7649 -0.6441 -0.0000
vn -0.0000 -0.6879 -0.7258
vn -0.7649 -0.6441 -0.0000
vn -0.7649 -0.6441 -0.0041
vn -0.0000 1.0000 -0.0000
vn -0.7649 0.6441 -0.0000
vn -0.0000 0.6879 -0.7258
vn -0.0000 0.6879 0.7259
vn -0.7455 -0.0000 -0.6665
vn 0.7475 -0.0000 0.6642
vn -0.7495 -0.0000 0.6620
vn -0.7475 -0.0000 -0.6642
vn -0.0000 -0.0000 1.0000
vn -0.3486 0.2445 -0.9048
vn -0.9385 -0.0000 0.3454
vn -0.3537 0.8803 -0.3163
vn -0.7456 -0.0000 -0.6664
vn 0.2002 -0.0000 -0.9798
vn -0.0000 0.2078 0.9782
vn 0.1624 -0.0000 0.9867
vn 0.7650 0.6440 -0.0000
vn 0.2216 0.3124 -0.9237
vn 0.2666 0.9343 -0.2369
vn -0.2224 -0.0110 -0.9749
vn -0.6042 -0.0000 -0.7968
vn 0.2379 0.0236 0.9710
vn 0.7707 -0.0000 0.6372
vn 0.2399 -0.0241 0.9705
vn 0.9999 -0.0077 -0.0078
vn -0.0000 -0.7875 -0.6163
vn -0.0000 -0.7875 0.6163
vn -0.0000 0.5414 0.8408
vn -0.0000 -0.5414 0.8408
vn -1.0000 0.0019 -0.0000
vn -1.0000 -0.0019 -0.0000
vn -0.0000 0.5414 -0.8408
vn 0.9997 0.0171 -0.0171
vn 1.0000 -0.0036 -0.0036
vn -1.0000 -0.0000 0.0012
vn -0.9997 -0.0233 0.0051
vn -0.9999 -0.0015 -0.0124
vn -1.0000 -0.0000 -0.0012
vn -0.0000 0.7875 0.6163
vn -0.9999 0.0102 0.0125
vn -0.0000 0.7875 -0.6163
vn 1.0000 -0.0009 0.0009
vn -0.0000 -0.5414 -0.8408
vn -0.9998 0.0210 0.0015
vn -0.9999 -0.0106 0.0125
vn -0.9354 0.3254 -0.1382
vn -0.9995 -0.0288 -0.0106
vn -0.9546 0.0768 0.2879
vn -0.9999 0.0055 -0.0137
vn -0.9153 -0.3713 -0.1564
vn -0.9995 0.0296 -0.0111
vt 0.710783 0.636918
vt 0.623024 0.636920
vt 0.623023 0.508303
vt 0.710782 0.508305
vt 0.956063 0.165825
vt 0.948744 0.171010
vt 0.923786 0.171046
vt 0.923786 0.042451
vt 0.956063 0.042405
vt 0.985834 0.128671
vt 0.958755 0.128595
vt 0.958755 0.000000
vt 0.985834 0.000076
vt 0.898258 0.504182
vt 0.898179 0.476324
vt 0.898082 0.442075
vt 0.920861 0.442043
vt 0.920980 0.484317
vt 0.958881 0.484264
vt 0.958761 0.441863
vt 0.985840 0.441939
vt 0.986015 0.504058
vt 0.096792 0.716706
vt 0.094578 0.713768
vt 0.094583 0.713768
vt 0.310710 0.184463
vt 0.253744 0.184521
vt 0.253744 0.003051
vt 0.310710 0.002993
vt 0.094390 0.002810
vt 0.094390 0.182259
vt 0.092770 0.184676
vt 0.091695 0.184695
vt 0.091695 0.002856
vt 0.185397 0.184451
vt 0.185397 0.013325
vt 0.188162 0.002793
vt 0.188165 0.184264
vt 0.585882 0.498048
vt 0.587870 0.500861
vt 0.583894 0.500861
vt 0.988652 0.439959
vt 0.985834 0.437962
vt 0.583894 0.588618
vt 0.587871 0.588618
vt 0.585882 0.591430
vt 0.895270 0.440090
vt 0.898077 0.438098
vt 0.920855 0.438066
vt 0.923673 0.440050
vt 0.955949 0.439866
vt 0.958755 0.437886
vt 0.713594 0.506317
vt 0.710782 0.504328
vt 0.096576 0.623625
vt 0.098343 0.626249
vt 0.094390 0.626293
vt 0.097575 0.184540
vt 0.097575 0.003069
vt 0.175030 0.002990
vt 0.094390 0.686768
vt 0.098343 0.686725
vt 0.098493 0.708247
vt 0.094442 0.648998
vt 0.098395 0.648954
vt 0.096642 0.651937
vt 0.096563 0.684100
vt 0.043300 0.622076
vt 0.091695 0.622045
vt 0.091580 0.624813
vt 0.043185 0.624844
vt 0.097575 0.621004
vt 0.185397 0.620915
vt 0.185354 0.623536
vt 0.097514 0.623625
vt 0.253744 0.620984
vt 0.310710 0.620926
vt 0.313479 0.623545
vt 0.253701 0.623606
vt 0.923786 0.480336
vt 0.956063 0.480291
vt 0.191091 0.622082
vt 0.248211 0.622045
vt 0.248079 0.624813
vt 0.188165 0.624852
vt 0.166849 0.630491
vt 0.167031 0.709108
vt 0.160120 0.717537
vt 0.102816 0.713989
vt 0.145113 0.689621
vt 0.145026 0.651841
vt 0.136120 0.628587
vt 0.253701 0.000061
vt 0.313479 0.000000
vt 0.141153 0.686861
vt 0.141079 0.654688
vt 0.188165 0.000039
vt 0.248079 0.000000
vt 0.248211 0.002856
vt 0.191091 0.002893
vt 0.094703 0.184359
vt 0.094703 0.002889
vt 0.001011 0.408110
vt 0.001013 0.184709
vt 0.003936 0.201161
vt 0.003936 0.408153
vt 0.920855 0.128775
vt 0.900467 0.128804
vt 0.898077 0.127117
vt 0.898077 0.000212
vt 0.920855 0.000180
vt 0.250889 0.408050
vt 0.250889 0.621999
vt 0.248211 0.408096
vt 0.250889 0.620803
vt 0.250889 0.184339
vt 0.043185 0.000033
vt 0.091580 0.000000
vt 0.053017 0.002881
vt 0.250889 0.002870
vt 0.250889 0.002810
vt 0.250889 0.184649
vt 0.248211 0.184695
vt 0.043300 0.408127
vt 0.020334 0.184741
vt 0.043300 0.184726
vt 0.985834 0.286659
vt 0.958755 0.286583
vt 0.958755 0.271678
vt 0.971224 0.271713
vt 0.985834 0.282086
vt 0.097575 0.407489
vt 0.172727 0.407412
vt 0.185397 0.420044
vt 0.185397 0.520479
vt 0.188164 0.407213
vt 0.188165 0.513970
vt 0.198403 0.184727
vt 0.191091 0.177414
vt 0.094390 0.187039
vt 0.094390 0.621999
vt 0.091695 0.515071
vt 0.091695 0.408096
vt 0.094703 0.407307
vt 0.094703 0.400853
vt 0.120509 0.386432
vt 0.956063 0.176175
vt 0.710782 0.794930
vt 0.623023 0.794929
vt 0.898077 0.130497
vt 0.896390 0.130005
vt 0.191091 0.192049
vt 0.191391 0.184846
vt 0.248211 0.387020
vt 0.185397 0.394755
vt 0.094703 0.620822
vt 0.710782 0.946255
vt 0.623024 0.946255
vt 0.623024 0.870592
vt 0.686144 0.870592
vt 0.710782 0.885711
vt 0.043300 0.515102
vt 0.026643 0.515113
vt 0.250889 0.386975
vt 0.001011 0.002870
vt 0.003936 0.002912
vt 0.003936 0.168342
vt 0.043300 0.012610
vt 0.003936 0.622102
vt 0.003821 0.624869
vt 0.033584 0.002893
vt 0.003821 0.000057
vt 0.103007 0.000074
vt 0.176468 0.000000
vt 0.176472 0.000001
vt 0.631911 0.504329
vt 0.623023 0.498050
vt 0.623024 0.498046
vt 0.094703 0.371695
vt 0.094390 0.385317
vt 0.985834 0.261423
vt 0.710782 0.854273
vt 0.001011 0.622059
vt 0.001011 0.536460
vt 0.188165 0.620727
vt 0.001011 0.492012
vt -0.000000 0.514699
vt 0.858909 0.459735
vt 0.895270 0.459735
vt 0.879251 0.470620
vt 0.858909 0.498046
vt 0.574993 0.655470
vt 0.574711 0.689138
vt 0.557384 0.689138
vt 0.557034 0.655470
vt 0.622962 0.984534
vt 0.615369 1.000000
vt 0.605004 1.000000
vt 0.605004 0.708230
vt 0.622962 0.708230
vt 0.622962 0.655468
vt 0.623023 0.689135
vt 0.604382 0.689135
vt 0.605004 0.655468
vt 0.584026 0.591430
vt 0.601985 0.591430
vt 0.601883 0.610525
vt 0.583894 0.610525
vt 0.594425 0.052735
vt 0.604382 0.060650
vt 0.604380 0.459737
vt 0.580714 0.425450
vt 0.580715 0.072598
vt 0.313493 0.459737
vt 0.313495 0.058600
vt 0.322537 0.051411
vt 0.337161 0.072598
vt 0.337160 0.425450
vt 0.740486 0.808911
vt 0.722827 0.808911
vt 0.722713 0.802348
vt 0.728429 0.789816
vt 0.740453 0.789816
vt 0.740486 0.542222
vt 0.741314 0.526235
vt 0.749387 0.526235
vt 0.748559 0.542222
vt 0.858908 0.000000
vt 0.879251 0.027425
vt 0.895269 0.038311
vt 0.858908 0.038311
vt 0.640743 0.459735
vt 0.640742 0.038311
vt 0.604382 0.459735
vt 0.604381 0.038311
vt 0.620400 0.027426
vt 0.640742 0.000000
vt 0.349856 0.000000
vt 0.568021 -0.000000
vt 0.550271 0.040521
vt 0.367605 0.040521
vt 0.329512 0.470621
vt 0.350570 0.434562
vt 0.588361 0.470621
vt 0.568019 0.498048
vt 0.550269 0.457527
vt 0.567299 0.434562
vt 0.388028 0.498048
vt 0.357458 0.480689
vt 0.367604 0.457527
vt 0.601935 0.627738
vt 0.595341 0.644192
vt 0.584026 0.644192
vt 0.616319 0.498046
vt 0.622962 0.525591
vt 0.605004 0.498046
vt 0.329513 0.027427
vt 0.350571 0.063484
vt 0.740453 0.842578
vt 0.722495 0.842578
vt 0.574993 0.498048
vt 0.557034 0.498048
vt 0.640743 0.498046
vt 0.620401 0.470619
vt 0.722495 0.775770
vt 0.722495 0.498046
vt 0.740453 0.498046
vt 0.574993 0.708232
vt 0.564627 0.708232
vt 0.557286 0.694501
vt 0.588362 0.027427
vt 0.567300 0.063484
vt 0.543622 0.892092
vt 0.526588 0.915055
vt 0.343923 0.915055
vt 0.326893 0.892092
vt 0.313479 0.882977
vt 0.313480 0.530126
vt 0.326895 0.521014
vt 0.343924 0.498048
vt 0.526590 0.498048
vt 0.543624 0.521014
vt 0.557034 0.530126
vt 0.557033 0.882977
vt 0.722495 0.786516
vt 0.722495 0.918322
vt 0.714422 0.918322
vt 0.714422 0.786516
vt 0.721667 0.758327
vt 0.713594 0.758327
vt 0.574993 0.674031
vt 0.574993 0.542225
vt 0.583066 0.542225
vt 0.583066 0.674031
vt 0.722495 0.742340
vt 0.714422 0.742340
vt 0.714422 0.498046
vt 0.740486 0.786516
vt 0.748559 0.786516
vt 0.596771 0.498048
vt 0.595943 0.526237
vt 0.587871 0.526237
vt 0.588699 0.498048
vt 0.575821 0.514036
vt 0.574993 0.498048
vt 0.583066 0.498048
vt 0.583894 0.514036
vt 0.596771 0.542225
vt 0.588699 0.542225
vt 0.740486 0.498046
vt 0.748559 0.498046
vt 0.313479 0.038304
vt 0.324007 0.031168
vt 0.349836 0.498040
vt 0.339913 0.484644
vt 0.592862 0.030484
vt 0.604361 0.038301
s 0
usemtl Material.002
f 46/1/1 43/2/1 29/3/1 24/4/1
f 59/5/2 58/6/2 52/7/2 36/8/2 38/9/2
f 44/10/3 48/11/3 41/12/3 31/13/3
f 2/14/4 76/15/4 12/16/4 15/17/4 17/18/4 19/19/4 22/20/4 5/21/4 8/22/4
f 30/23/5 31/24/5 61/25/5
f 52/26/6 50/27/6 34/28/6 36/29/6
f 28/30/7 55/31/7 54/32/7 47/33/7 26/34/7
f 42/35/8 88/36/8 29/37/8 43/38/8
f 1/39/9 2/40/9 3/41/9
f 4/42/10 5/21/10 6/43/10
f 7/44/11 8/45/11 9/46/11
f 10/47/12 11/48/12 12/16/12
f 13/49/13 14/50/13 15/17/13
f 20/51/14 21/52/14 22/20/14
f 23/53/15 24/4/15 25/54/15
f 26/55/16 27/56/16 28/57/16
f 42/35/6 45/58/6 30/59/6 89/60/6 88/36/6
f 31/24/17 41/61/17 40/62/17 62/63/17 61/25/17
f 32/64/18 33/65/18 34/66/18
f 39/67/19 40/62/19 41/61/19
f 75/68/20 10/69/20 12/70/20 76/71/20
f 7/44/21 3/41/21 2/40/21 8/45/21
f 4/72/22 9/73/22 8/74/22 5/75/22
f 11/48/23 13/49/23 15/17/23 12/16/23
f 14/76/22 16/77/22 17/78/22 15/79/22
f 16/80/23 18/81/23 19/19/23 17/18/23
f 18/82/20 20/83/20 22/84/20 19/85/20
f 5/21/24 22/20/24 21/52/24 6/43/24
f 25/86/25 87/87/25 86/88/25 63/89/25 62/63/25 40/62/25 37/90/25 35/91/25 33/65/25 27/56/25 77/92/25
f 27/56/26 33/65/26 32/64/26 28/57/26
f 33/93/27 35/94/27 36/29/27 34/28/27
f 35/91/26 37/90/26 38/95/26 36/96/26
f 37/97/28 40/98/28 39/99/28 38/100/28
f 44/101/29 31/102/29 30/59/29 45/58/29
f 69/103/30 46/104/30 84/105/30 66/106/30
f 51/107/2 56/108/2 55/109/2 28/110/2 32/111/2
f 67/112/31 21/113/31 20/83/31 71/114/31
f 50/27/32 14/76/32 13/115/32 51/116/32
f 77/117/28 27/118/28 26/34/28 80/119/28
f 34/28/32 50/27/32 51/116/32 32/120/32
f 41/121/31 48/122/31 49/123/31 39/99/31
f 79/124/33 66/106/33 84/105/33 83/125/33 78/126/33
f 68/127/3 67/128/3 93/129/3 95/130/3 94/131/3
f 9/73/6 4/72/6 65/132/6 73/133/6 72/134/6 100/135/6
f 100/135/8 72/134/8 64/136/8 97/137/8
f 49/123/33 60/138/33 59/139/33 38/100/33 39/99/33
f 54/32/7 53/140/7 11/141/7 10/69/7 99/142/7 70/143/7 47/33/7
f 16/77/6 14/76/6 50/27/6 52/26/6
f 68/144/34 94/145/34 92/146/34 65/132/34
f 18/81/2 16/80/2 52/7/2 58/6/2 57/147/2
f 69/148/1 64/149/1 43/2/1 46/1/1
f 53/150/35 54/151/35 55/109/35 56/108/35
f 13/49/2 11/48/2 53/150/2 56/108/2 51/107/2
f 57/152/7 58/153/7 59/139/7 60/138/7
f 20/83/33 18/82/33 57/152/33 60/138/33 49/123/33 91/154/33 71/114/33
f 30/23/36 61/25/36 62/63/36 63/89/36
f 6/43/3 21/52/3 67/128/3 68/127/3
f 64/136/8 74/155/8 42/35/8 43/38/8
f 6/156/37 68/144/37 65/132/37 4/72/37
f 3/157/1 7/158/1 97/159/1 104/160/1 103/161/1
f 101/162/33 98/163/33 66/106/33 79/124/33
f 93/164/31 67/112/31 71/114/31 91/154/31
f 64/136/38 72/134/38 73/133/38 74/155/38
f 74/155/6 73/133/6 65/132/6 92/146/6 45/58/6 42/35/6
f 99/142/33 101/162/33 79/124/33 70/143/33
f 70/143/33 79/124/33 78/126/33 47/33/33
f 46/104/30 24/165/30 23/166/30 85/167/30
f 47/33/33 78/126/33 81/168/33 80/119/33 26/34/33
f 1/169/20 75/68/20 76/71/20 2/170/20
f 77/117/39 80/119/39 81/168/39 82/171/39
f 25/172/28 77/117/28 82/171/28 23/166/28
f 83/125/40 84/105/40 46/104/40 85/167/40
f 78/126/33 83/125/33 85/167/33 23/166/33 82/171/33 81/168/33
f 30/59/27 63/173/27 86/174/27 90/175/27 89/60/27
f 29/3/41 87/176/41 25/54/41 24/4/41
f 88/36/42 89/60/42 90/175/42 29/37/42
f 29/3/43 90/177/43 86/178/43 87/176/43
f 48/122/31 93/164/31 91/154/31 49/123/31
f 92/146/44 96/179/44 44/101/44 45/58/44
f 92/146/45 94/145/45 95/180/45 96/179/45
f 96/181/3 95/130/3 93/129/3 48/11/3 44/10/3
f 10/69/33 75/68/33 101/162/33 99/142/33
f 75/68/33 1/169/33 98/163/33 101/162/33
f 102/182/1 104/160/1 97/159/1 64/149/1 69/148/1
f 3/183/46 103/184/46 98/163/46 1/169/46
f 9/73/8 100/135/8 97/137/8 7/185/8
f 102/186/47 98/163/47 103/184/47 104/187/47
f 98/163/48 102/186/48 69/103/48 66/106/48
usemtl Material.003
f 132/188/49 116/189/49 108/190/49 121/191/49
f 121/192/50 108/193/50 112/194/50 123/195/50
f 164/196/4 163/197/4 116/198/4 115/199/4 118/200/4
f 125/201/51 110/202/51 106/203/51 120/204/51
f 114/205/52 117/206/52 109/207/52 105/208/52
f 118/200/53 115/199/53 106/203/53 110/202/53
f 165/209/54 164/210/54 118/211/54 127/212/54 139/213/54
f 117/214/55 155/215/55 154/216/55 128/217/55 137/218/55
f 107/219/56 111/220/56 157/221/56 156/222/56 113/223/56
f 127/224/56 134/225/56 152/226/56 153/227/56
f 120/228/57 106/229/57 115/230/57 130/231/57
f 132/188/1 133/232/1 131/233/1 130/231/1
f 131/233/1 133/232/1 113/234/1 114/235/1
f 115/230/1 116/189/1 132/188/1 130/231/1
f 105/236/58 119/237/58 131/233/58 114/235/58
f 119/237/1 120/228/1 130/231/1 131/233/1
f 124/238/59 123/239/59 140/240/59 126/241/59
f 109/242/60 117/214/60 137/218/60 136/243/60
f 110/244/61 125/245/61 141/246/61 134/247/61
f 125/245/62 159/248/62 158/249/62 135/250/62 141/246/62
f 109/207/63 161/251/63 160/252/63 119/253/63 105/208/63
f 160/254/33 159/255/33 125/201/33 120/204/33 119/256/33
f 111/257/64 124/238/64 126/241/64 129/258/64
f 107/219/65 122/259/65 124/260/65 111/220/65
f 122/261/6 121/192/6 123/195/6 124/262/6
f 113/234/66 133/232/66 122/263/66 107/264/66
f 133/232/1 132/188/1 121/191/1 122/263/1
f 113/223/25 156/222/25 155/265/25 117/266/25 114/267/25
f 112/194/67 108/193/67 116/268/67 163/269/67 162/270/67
f 118/211/68 110/244/68 134/247/68 127/212/68
f 123/239/69 112/271/69 138/272/69 140/240/69
f 147/273/2 149/274/2 148/275/2 150/276/2 151/277/2 153/278/2 152/279/2 142/280/2 143/281/2 144/282/2 145/283/2 146/284/2
f 126/285/33 140/286/33 148/287/33 149/288/33
f 129/289/51 126/285/51 149/288/51 147/290/51
f 141/291/6 135/292/6 143/293/6 142/294/6
f 137/266/4 128/295/4 146/296/4 145/297/4
f 139/298/25 127/224/25 153/227/25 151/299/25
f 140/300/63 138/301/63 150/302/63 148/303/63
f 136/304/67 137/305/67 145/306/67 144/307/67
f 135/292/50 136/304/50 144/307/50 143/293/50
f 138/301/52 139/308/52 151/309/52 150/302/52
f 128/295/53 129/289/53 147/290/53 146/296/53
f 134/225/65 141/310/65 142/311/65 152/226/65
f 154/216/70 155/215/70 156/312/70 157/313/70
f 154/216/71 157/313/71 111/257/71 129/258/71 128/217/71
f 158/249/72 159/248/72 160/314/72 161/315/72
f 158/249/73 161/315/73 109/242/73 136/243/73 135/250/73
f 162/316/74 163/317/74 164/210/74 165/209/74
f 112/271/75 162/316/75 165/209/75 139/213/75 138/272/75
