# Blender 4.0.2
# www.blender.org
o Trilho_Quebrado
v 0.855199 -0.063135 2.904840
v 0.855199 0.186865 2.904840
v 0.855199 -0.063135 0.904840
v 0.855199 0.186865 0.904840
v 0.950229 -0.063135 2.904840
v 0.950229 0.186865 2.904840
v 0.950229 -0.063135 0.904840
v 0.950229 0.186865 0.904840
v -0.953036 -0.063135 2.904840
v -0.953036 0.186865 2.904840
v -0.953036 -0.063135 0.904840
v -0.953036 0.186865 0.904840
v -1.048067 -0.063135 2.904840
v -1.048067 0.186865 2.904840
v -1.048067 -0.063135 0.904840
v -1.048067 0.186865 0.904840
v -1.298919 -0.106399 2.780280
v -1.298919 0.013601 2.780280
v -1.298919 -0.106399 2.430280
v -1.298919 0.013601 2.430280
v 1.201081 -0.106399 2.780280
v 1.201081 0.013601 2.780280
v 1.201081 -0.106399 2.430280
v 1.201081 0.013601 2.430280
v -1.298919 -0.106399 2.080280
v -1.298919 0.013601 2.080280
v -1.298919 -0.106399 1.730280
v -1.298919 0.013601 1.730280
v 1.201081 -0.106399 2.080280
v 1.201081 0.013601 2.080280
v 1.201081 -0.106399 1.730280
v 1.201081 0.013601 1.730280
v 0.855199 -0.063135 0.904840
v 0.855199 0.186865 0.904840
v 0.855199 -0.063135 -1.095160
v 0.855199 0.186865 -1.095160
v 0.950229 -0.063135 0.904840
v 0.950229 0.186865 0.904840
v 0.950229 -0.063135 -1.095160
v 0.950229 0.186865 -1.095160
v -0.953036 -0.063135 0.904840
v -0.953036 0.186865 0.904840
v -0.953036 -0.063135 -1.095160
v -0.953036 0.186865 -1.095160
v -1.048067 -0.063135 0.904840
v -1.048067 0.186865 0.904840
v -1.048067 -0.063135 -1.095160
v -1.048067 0.186865 -1.095160
v -1.069143 -0.106399 1.679916
v -1.069143 0.013601 1.679916
v -1.269958 -0.106399 1.393257
v -1.269958 0.013601 1.393257
v 1.184771 -0.106399 0.709781
v 1.184771 0.013601 0.709781
v 1.042283 -0.106399 0.390098
v 1.042283 0.013601 0.390098
v -1.310416 -0.106399 -0.136532
v -1.310416 0.013601 -0.136532
v -1.250434 -0.106399 -0.481354
v -1.250434 0.013601 -0.481354
v 1.152597 -0.106399 0.291913
v 1.152597 0.013601 0.291913
v 1.212579 -0.106399 -0.052909
v 1.212579 0.013601 -0.052909
v 1.201081 -0.106399 -0.944053
v 1.201081 0.013601 -0.944053
v 1.201081 -0.106399 -1.294053
v 1.201081 0.013601 -1.294053
v 0.855199 -0.063135 -1.095160
v 0.855199 0.186865 -1.095160
v 0.855199 -0.063135 -3.095160
v 0.855199 0.186865 -3.095160
v 0.950229 -0.063135 -1.095160
v 0.950229 0.186865 -1.095160
v 0.950229 -0.063135 -3.095160
v 0.950229 0.186865 -3.095160
v -0.953036 -0.063135 -1.095160
v -0.953036 0.186865 -1.095160
v -0.953036 -0.063135 -3.095160
v -0.953036 0.186865 -3.095160
v -1.048067 -0.063135 -1.095160
v -1.048067 0.186865 -1.095160
v -1.048067 -0.063135 -3.095160
v -1.048067 0.186865 -3.095160
v -1.288256 -0.106399 -2.206403
v -1.288256 0.013601 -2.206403
v -1.174947 -0.106399 -2.537554
v -1.174947 0.013601 -2.537554
v 1.077110 -0.106399 -1.397053
v 1.077110 0.013601 -1.397053
v 1.190419 -0.106399 -1.728205
v 1.190419 0.013601 -1.728205
v -1.298919 -0.106399 -2.619720
v -1.298919 0.013601 -2.619720
v -1.298919 -0.106399 -2.969720
v -1.298919 0.013601 -2.969720
v 1.201081 -0.106399 -2.619720
v 1.201081 0.013601 -2.619720
v 1.201081 -0.106399 -2.969720
v 1.201081 0.013601 -2.969720
v 0.314414 -0.106399 -1.294053
v 0.314414 0.013601 -1.294053
v 0.075945 -0.106399 -0.944053
v 0.075945 0.013601 -0.944053
v 0.075416 -0.106399 0.821049
v 0.075416 0.013601 0.821049
v 0.217905 -0.106399 1.140732
v 0.217905 0.013601 1.140732
v -0.511097 -0.106399 0.861645
v -0.310282 0.013601 1.148304
v -0.511097 0.013601 0.861645
v -0.310282 -0.106399 1.148304
vn -1.0000 -0.0000 -0.0000
vn -0.0000 -0.0000 -1.0000
vn 1.0000 -0.0000 -0.0000
vn -0.0000 -0.0000 1.0000
vn -0.0000 -1.0000 -0.0000
vn -0.0000 1.0000 -0.0000
vn -0.8190 -0.0000 0.5738
vn -0.4071 -0.0000 -0.9134
vn 0.9134 -0.0000 -0.4071
vn 0.5738 -0.0000 0.8190
vn -0.9852 -0.0000 -0.1714
vn 0.1714 -0.0000 -0.9852
vn 0.9852 -0.0000 0.1714
vn -0.1714 -0.0000 0.9852
vn -0.9461 -0.0000 -0.3237
vn 0.3237 -0.0000 -0.9461
vn 0.9461 -0.0000 0.3237
vn -0.3237 -0.0000 0.9461
vn 0.4071 -0.0000 0.9134
vn -0.5738 -0.0000 -0.8190
vn -0.9134 -0.0000 0.4071
vn 0.8190 -0.0000 -0.5738
vn -0.8264 -0.0000 -0.5631
vt 0.463608 0.064546
vt 0.567396 0.064546
vt 0.567396 0.168334
vt 0.463608 0.168334
vt 0.567396 0.272121
vt 0.463608 0.272121
vt 0.567396 0.375908
vt 0.463608 0.375908
vt 0.567396 0.479696
vt 0.463608 0.479696
vt 0.359821 0.272121
vt 0.359821 0.375908
vt 0.671183 0.272121
vt 0.671183 0.375908
vt 0.786049 0.064546
vt 0.786049 0.168334
vt 0.889836 0.168334
vt 0.889836 0.064546
vt 0.786049 0.272121
vt 0.889836 0.272121
vt 0.786049 0.375908
vt 0.889836 0.375908
vt 0.786049 0.479696
vt 0.889836 0.479696
vt 0.682262 0.272121
vt 0.682262 0.375908
vt 0.993624 0.375908
vt 0.993624 0.272121
vt 0.779575 0.559195
vt 0.883977 0.559195
vt 0.883977 0.663597
vt 0.779575 0.663597
vt 0.883977 0.767999
vt 0.779575 0.767999
vt 0.883977 0.872401
vt 0.779575 0.872401
vt 0.883977 0.976803
vt 0.779575 0.976803
vt 0.675173 0.767999
vt 0.675173 0.872401
vt 0.988379 0.767999
vt 0.988379 0.872401
vt 0.128250 0.039285
vt 0.249018 0.039285
vt 0.249018 0.160053
vt 0.128250 0.160053
vt 0.126268 0.657890
vt 0.244359 0.657890
vt 0.244359 0.775981
vt 0.126268 0.775981
vt 0.126268 0.539800
vt 0.244359 0.539800
vt 0.128250 0.382418
vt 0.249018 0.382418
vt 0.249018 0.482106
vt 0.128250 0.482106
vt 0.008178 0.775981
vt 0.126268 0.894071
vt 0.008178 0.894071
vt 0.249018 0.288327
vt 0.347388 0.288327
vt 0.347388 0.355741
vt 0.249018 0.355741
vt 0.469763 0.670449
vt 0.572149 0.670449
vt 0.572149 0.772834
vt 0.469763 0.772834
vt 0.572149 0.875220
vt 0.469763 0.875220
vt 0.367377 0.772834
vt 0.367377 0.875220
vt 0.572149 0.795451
vt 0.657986 0.795451
vt 0.657986 0.852604
vt 0.572149 0.852604
vt 0.572149 0.977606
vt 0.469763 0.977606
vt 0.242641 0.775981
vt 0.343125 0.775981
vt 0.343125 0.894071
vt 0.242641 0.894071
vt 0.244359 0.894071
vt 0.244359 0.992733
vt 0.126268 0.992733
vt 0.249018 0.261650
vt 0.128250 0.261650
vt 0.007482 0.261650
vt 0.007482 0.382418
vt 0.572149 0.568063
vt 0.469763 0.568063
s 0
f 1/1/1 2/2/1 4/3/1 3/4/1
f 3/4/2 4/3/2 8/5/2 7/6/2
f 7/6/3 8/5/3 6/7/3 5/8/3
f 5/8/4 6/7/4 2/9/4 1/10/4
f 3/11/5 7/6/5 5/8/5 1/12/5
f 8/5/6 4/13/6 2/14/6 6/7/6
f 9/15/3 11/16/3 12/17/3 10/18/3
f 11/16/2 15/19/2 16/20/2 12/17/2
f 15/19/1 13/21/1 14/22/1 16/20/1
f 13/21/4 9/23/4 10/24/4 14/22/4
f 11/25/5 9/26/5 13/21/5 15/19/5
f 16/20/6 14/22/6 10/27/6 12/28/6
f 17/29/1 18/30/1 20/31/1 19/32/1
f 19/32/2 20/31/2 24/33/2 23/34/2
f 23/34/3 24/33/3 22/35/3 21/36/3
f 21/36/4 22/35/4 18/37/4 17/38/4
f 19/39/5 23/34/5 21/36/5 17/40/5
f 24/33/6 20/41/6 18/42/6 22/35/6
f 25/29/1 26/30/1 28/31/1 27/32/1
f 27/32/2 28/31/2 32/33/2 31/34/2
f 31/34/3 32/33/3 30/35/3 29/36/3
f 29/36/4 30/35/4 26/37/4 25/38/4
f 27/39/5 31/34/5 29/36/5 25/40/5
f 32/33/6 28/41/6 26/42/6 30/35/6
f 33/1/1 34/2/1 36/3/1 35/4/1
f 35/4/2 36/3/2 40/5/2 39/6/2
f 39/6/3 40/5/3 38/7/3 37/8/3
f 37/8/4 38/7/4 34/9/4 33/10/4
f 35/11/5 39/6/5 37/8/5 33/12/5
f 40/5/6 36/13/6 34/14/6 38/7/6
f 41/15/3 43/16/3 44/17/3 42/18/3
f 47/19/1 45/21/1 46/22/1 48/20/1
f 45/21/4 41/23/4 42/24/4 46/22/4
f 43/25/5 41/26/5 45/21/5 47/19/5
f 48/20/6 46/22/6 42/27/6 44/28/6
f 49/43/7 50/44/7 52/45/7 51/46/7
f 105/47/8 106/48/8 56/49/8 55/50/8
f 55/51/9 56/52/9 54/48/9 53/47/9
f 112/53/10 110/54/10 50/55/10 49/56/10
f 105/57/5 55/50/5 53/58/5 107/59/5
f 111/60/6 52/61/6 50/62/6 110/63/6
f 57/29/11 58/30/11 60/31/11 59/32/11
f 59/32/12 60/31/12 64/33/12 63/34/12
f 63/34/13 64/33/13 62/35/13 61/36/13
f 61/36/14 62/35/14 58/37/14 57/38/14
f 59/39/5 63/34/5 61/36/5 57/40/5
f 64/33/6 60/41/6 58/42/6 62/35/6
f 101/64/2 102/65/2 68/66/2 67/67/2
f 67/67/3 68/66/3 66/68/3 65/69/3
f 101/70/5 67/67/5 65/69/5 103/71/5
f 69/1/1 70/2/1 72/3/1 71/4/1
f 71/4/2 72/3/2 76/5/2 75/6/2
f 75/6/3 76/5/3 74/7/3 73/8/3
f 73/8/4 74/7/4 70/9/4 69/10/4
f 71/11/5 75/6/5 73/8/5 69/12/5
f 76/5/6 72/13/6 70/14/6 74/7/6
f 77/15/3 79/16/3 80/17/3 78/18/3
f 79/16/2 83/19/2 84/20/2 80/17/2
f 83/19/1 81/21/1 82/22/1 84/20/1
f 79/25/5 77/26/5 81/21/5 83/19/5
f 84/20/6 82/22/6 78/27/6 80/28/6
f 85/29/15 86/30/15 88/31/15 87/32/15
f 87/32/16 88/31/16 92/33/16 91/34/16
f 91/34/17 92/33/17 90/35/17 89/36/17
f 89/36/18 90/35/18 86/37/18 85/38/18
f 87/39/5 91/34/5 89/36/5 85/40/5
f 92/33/6 88/41/6 86/42/6 90/35/6
f 93/29/1 94/30/1 96/31/1 95/32/1
f 95/32/2 96/31/2 100/33/2 99/34/2
f 99/34/3 100/33/3 98/35/3 97/36/3
f 97/36/4 98/35/4 94/37/4 93/38/4
f 95/39/5 99/34/5 97/36/5 93/40/5
f 100/33/6 96/41/6 94/42/6 98/35/6
f 68/72/6 102/73/6 104/74/6 66/75/6
f 65/69/4 66/68/4 104/76/4 103/77/4
f 56/78/6 106/79/6 108/80/6 54/81/6
f 53/58/19 54/82/19 108/83/19 107/84/19
f 51/46/20 52/45/20 111/85/20 109/86/20
f 51/87/5 109/86/5 112/53/5 49/88/5
f 108/82/21 106/49/21 105/50/21 107/58/21
f 109/86/22 111/85/22 110/54/22 112/53/22
f 104/65/23 102/89/23 101/90/23 103/64/23
