# Blender 4.0.2
# www.blender.org
o Trilho_Inteiro
v -1.298919 -0.103305 0.875175
v -1.298919 0.016695 0.875175
v -1.298919 -0.103305 0.525176
v -1.298919 0.016695 0.525176
v 1.201081 -0.103305 0.875175
v 1.201081 0.016695 0.875175
v 1.201081 -0.103305 0.525176
v 1.201081 0.016695 0.525176
v -1.298919 -0.103305 0.175175
v -1.298919 0.016695 0.175175
v -1.298919 -0.103305 -0.174824
v -1.298919 0.016695 -0.174824
v 1.201081 -0.103305 0.175175
v 1.201081 0.016695 0.175175
v 1.201081 -0.103305 -0.174824
v 1.201081 0.016695 -0.174824
v -1.298919 -0.103305 -0.524825
v -1.298919 0.016695 -0.524825
v -1.298919 -0.103305 -0.874825
v -1.298919 0.016695 -0.874825
v 1.201081 -0.103305 -0.524825
v 1.201081 0.016695 -0.524825
v 1.201081 -0.103305 -0.874825
v 1.201081 0.016695 -0.874825
v 0.855199 -0.063135 0.999736
v 0.855199 0.186865 0.999736
v 0.855199 -0.063135 -1.000264
v 0.855199 0.186865 -1.000264
v 0.950229 -0.063135 0.999736
v 0.950229 0.186865 0.999736
v 0.950229 -0.063135 -1.000264
v 0.950229 0.186865 -1.000264
v -0.953036 -0.063135 0.999736
v -0.953036 0.186865 0.999736
v -0.953036 -0.063135 -1.000264
v -0.953036 0.186865 -1.000264
v -1.048067 -0.063135 0.999736
v -1.048067 0.186865 0.999736
v -1.048067 -0.063135 -1.000264
v -1.048067 0.186865 -1.000264
vn -1.0000 -0.0000 -0.0000
vn -0.0000 -0.0000 -1.0000
vn 1.0000 -0.0000 -0.0000
vn -0.0000 -0.0000 1.0000
vn -0.0000 -1.0000 -0.0000
vn -0.0000 1.0000 -0.0000
vt 0.135317 0.541219
vt 0.243804 0.541219
vt 0.243804 0.649706
vt 0.135317 0.649706
vt 0.243804 0.758194
vt 0.135317 0.758194
vt 0.243804 0.866681
vt 0.135317 0.866681
vt 0.243804 0.975169
vt 0.135317 0.975169
vt 0.026830 0.758194
vt 0.026830 0.866681
vt 0.352292 0.758194
vt 0.352292 0.866681
vt 0.445864 0.293172
vt 0.554351 0.293172
vt 0.554351 0.401660
vt 0.445864 0.401660
vt 0.554351 0.510147
vt 0.445864 0.510147
vt 0.554351 0.618634
vt 0.445864 0.618634
vt 0.554351 0.727122
vt 0.445864 0.727122
vt 0.337376 0.510147
vt 0.337376 0.618634
vt 0.662839 0.510147
vt 0.662839 0.618634
vt 0.758364 0.541219
vt 0.866851 0.541219
vt 0.866851 0.649706
vt 0.758364 0.649706
vt 0.866851 0.758194
vt 0.758364 0.758194
vt 0.866851 0.866681
vt 0.758364 0.866681
vt 0.866851 0.975169
vt 0.758364 0.975169
vt 0.649876 0.758194
vt 0.649876 0.866681
vt 0.975339 0.758194
vt 0.975339 0.866681
vt 0.760568 0.049049
vt 0.866511 0.049049
vt 0.866511 0.154992
vt 0.760568 0.154992
vt 0.866511 0.260934
vt 0.760568 0.260934
vt 0.866511 0.366877
vt 0.760568 0.366877
vt 0.866511 0.472820
vt 0.760568 0.472820
vt 0.654625 0.260934
vt 0.654625 0.366877
vt 0.972454 0.260934
vt 0.972454 0.366877
vt 0.135568 0.049049
vt 0.135568 0.154992
vt 0.241511 0.154992
vt 0.241511 0.049049
vt 0.135568 0.260934
vt 0.241511 0.260934
vt 0.135568 0.366877
vt 0.241511 0.366877
vt 0.135568 0.472820
vt 0.241511 0.472820
vt 0.029625 0.260934
vt 0.029625 0.366877
vt 0.347454 0.366877
vt 0.347454 0.260934
s 0
f 1/1/1 2/2/1 4/3/1 3/4/1
f 3/4/2 4/3/2 8/5/2 7/6/2
f 7/6/3 8/5/3 6/7/3 5/8/3
f 5/8/4 6/7/4 2/9/4 1/10/4
f 3/11/5 7/6/5 5/8/5 1/12/5
f 8/5/6 4/13/6 2/14/6 6/7/6
f 9/15/1 10/16/1 12/17/1 11/18/1
f 11/18/2 12/17/2 16/19/2 15/20/2
f 15/20/3 16/19/3 14/21/3 13/22/3
f 13/22/4 14/21/4 10/23/4 9/24/4
f 11/25/5 15/20/5 13/22/5 9/26/5
f 16/19/6 12/27/6 10/28/6 14/21/6
f 17/29/1 18/30/1 20/31/1 19/32/1
f 19/32/2 20/31/2 24/33/2 23/34/2
f 23/34/3 24/33/3 22/35/3 21/36/3
f 21/36/4 22/35/4 18/37/4 17/38/4
f 19/39/5 23/34/5 21/36/5 17/40/5
f 24/33/6 20/41/6 18/42/6 22/35/6
f 25/43/1 26/44/1 28/45/1 27/46/1
f 27/46/2 28/45/2 32/47/2 31/48/2
f 31/48/3 32/47/3 30/49/3 29/50/3
f 29/50/4 30/49/4 26/51/4 25/52/4
f 27/53/5 31/48/5 29/50/5 25/54/5
f 32/47/6 28/55/6 26/56/6 30/49/6
f 33/57/3 35/58/3 36/59/3 34/60/3
f 35/58/2 39/61/2 40/62/2 36/59/2
f 39/61/1 37/63/1 38/64/1 40/62/1
f 37/63/4 33/65/4 34/66/4 38/64/4
f 35/67/5 33/68/5 37/63/5 39/61/5
f 40/62/6 38/64/6 34/69/6 36/70/6
